<?xml version="1.0" encoding="UTF-8"?>
<!DOCTYPE svg PUBLIC "-//W3C//DTD SVG 1.1//EN" "http://www.w3.org/Graphics/SVG/1.1/DTD/svg11.dtd">
<svg xmlns="http://www.w3.org/2000/svg" version="1.1" width="108px" height="108px" style="shape-rendering:geometricPrecision; text-rendering:geometricPrecision; image-rendering:optimizeQuality; fill-rule:evenodd; clip-rule:evenodd" xmlns:xlink="http://www.w3.org/1999/xlink">
<g><path style="opacity:0.99" fill="#313131" d="M 43.5,-0.5 C 44.8333,-0.5 46.1667,-0.5 47.5,-0.5C 47.0825,0.221579 46.4158,0.721579 45.5,1C 48.0583,1.2753 50.3916,0.775302 52.5,-0.5C 56.1667,-0.5 59.8333,-0.5 63.5,-0.5C 76.9196,2.70916 87.9196,9.70916 96.5,20.5C 95.475,20.8966 95.3083,21.5632 96,22.5C 97,23.5 98,24.5 99,25.5C 99.3988,25.2716 99.5654,24.9382 99.5,24.5C 100.674,25.5137 101.34,26.847 101.5,28.5C 100.957,28.56 100.624,28.8933 100.5,29.5C 101.489,31.5862 102.822,33.2529 104.5,34.5C 105.11,35.391 105.443,36.391 105.5,37.5C 104.516,39.5979 104.849,41.5979 106.5,43.5C 106.833,43.5 107.167,43.5 107.5,43.5C 107.5,50.1667 107.5,56.8333 107.5,63.5C 106.833,63.5 106.5,63.8333 106.5,64.5C 104.837,66.4385 104.171,68.7718 104.5,71.5C 104.672,72.4916 104.338,73.1583 103.5,73.5C 101.559,75.3159 100.892,77.3159 101.5,79.5C 99.0659,83.3817 96.3993,87.0484 93.5,90.5C 93.5654,90.0618 93.3988,89.7284 93,89.5C 91.9614,90.2438 91.4614,91.2438 91.5,92.5C 90.1667,92.5 89.5,93.1667 89.5,94.5C 88.8333,94.8333 88.1667,95.1667 87.5,95.5C 85.5956,95.7376 84.2623,96.7376 83.5,98.5C 82.5637,99.9744 81.2303,100.974 79.5,101.5C 78.221,100.285 77.221,100.618 76.5,102.5C 74.7496,103.87 72.7496,104.87 70.5,105.5C 68.4021,104.516 66.4021,104.849 64.5,106.5C 63.8333,106.5 63.5,106.833 63.5,107.5C 56.8333,107.5 50.1667,107.5 43.5,107.5C 39.9551,106.761 36.6217,105.428 33.5,103.5C 32.3646,101.787 30.698,101.12 28.5,101.5C 26.9731,101.573 25.9731,100.906 25.5,99.5C 25.0269,98.0937 24.0269,97.427 22.5,97.5C 22.0269,96.0937 21.0269,95.427 19.5,95.5C 18.8333,95.5 18.5,95.1667 18.5,94.5C 17.0892,92.086 15.0892,90.4194 12.5,89.5C 12.1667,88.8333 11.8333,88.1667 11.5,87.5C 10.9278,85.7446 10.0945,84.0779 9,82.5C 8.31001,81.2617 7.81001,81.2617 7.5,82.5C 6.59872,81.7095 5.93205,80.7095 5.5,79.5C 6.04309,79.44 6.37642,79.1067 6.5,78.5C 5.80645,76.1876 4.80645,74.8543 3.5,74.5C 2.65536,73.3285 1.98869,71.9952 1.5,70.5C 2.23891,70.631 2.90558,70.4643 3.5,70C 2.77092,67.9419 1.77092,66.1086 0.5,64.5C 0.5,63.8333 0.166667,63.5 -0.5,63.5C -0.5,62.8333 -0.5,62.1667 -0.5,61.5C 0.376442,61.6309 1.04311,61.2975 1.5,60.5C 0.972438,58.6639 0.305771,56.9972 -0.5,55.5C -0.5,51.5 -0.5,47.5 -0.5,43.5C 1.33773,36.3241 4.33773,29.6574 8.5,23.5C 8.36899,24.2389 8.53566,24.9056 9,25.5C 9.63547,24.0337 10.4688,22.7003 11.5,21.5C 11.3764,20.8933 11.0431,20.56 10.5,20.5C 18.7413,9.2101 29.7413,2.2101 43.5,-0.5 Z"/></g>
<g><path style="opacity:1" fill="#7a7a7a" d="M 47.5,-0.5 C 49.1667,-0.5 50.8333,-0.5 52.5,-0.5C 50.3916,0.775302 48.0583,1.2753 45.5,1C 46.4158,0.721579 47.0825,0.221579 47.5,-0.5 Z"/></g>
<g><path style="opacity:1" fill="#e7e7e7" d="M 40.5,9.5 C 49.5,9.5 58.5,9.5 67.5,9.5C 67.8333,12.1667 68.1667,14.8333 68.5,17.5C 81.4953,22.4201 89.662,31.7534 93,45.5C 93.3333,50.5 93.6667,55.5 94,60.5C 95.8961,61.6796 97.3961,63.1796 98.5,65C 94.384,72.7324 89.884,80.2324 85,87.5C 83.2927,86.5415 81.4594,85.8748 79.5,85.5C 62.2824,96.1382 45.1157,96.1382 28,85.5C 25.8491,85.7725 23.8491,86.4392 22,87.5C 17.6258,79.9171 13.1258,72.4171 8.5,65C 10.3333,63.1667 12.1667,61.3333 14,59.5C 12.8023,39.555 21.1356,25.2217 39,16.5C 39.4396,14.1341 39.9396,11.8008 40.5,9.5 Z"/></g>
<g><path style="opacity:1" fill="#636363" d="M 64.5,12.5 C 57.0796,12.2027 49.7463,12.536 42.5,13.5C 45.7681,12.1778 49.4348,11.5112 53.5,11.5C 57.3492,11.5013 61.0159,11.8346 64.5,12.5 Z"/></g>
<g><path style="opacity:1" fill="#2e2e2e" d="M 64.5,12.5 C 64.9954,14.4817 65.4954,16.4817 66,18.5C 84.3506,26.8524 92.684,41.1857 91,61.5C 92.3513,63.019 93.8513,64.3523 95.5,65.5C 92.2931,71.4147 88.9598,77.2481 85.5,83C 82.5144,82.8724 79.5144,82.8724 76.5,83C 66.9501,90.0254 56.2834,92.3587 44.5,90C 39.2754,88.721 34.6087,86.3877 30.5,83C 27.7996,82.7468 25.133,82.7468 22.5,83C 18.752,77.5834 15.4186,71.9168 12.5,66C 14.3673,64.2163 16.0339,62.2163 17.5,60C 15.3081,40.5557 23.1414,26.7224 41,18.5C 42.0086,16.9751 42.5086,15.3084 42.5,13.5C 49.7463,12.536 57.0796,12.2027 64.5,12.5 Z"/></g>
<g><path style="opacity:1" fill="#757575" d="M 10.5,20.5 C 11.0431,20.56 11.3764,20.8933 11.5,21.5C 10.4688,22.7003 9.63547,24.0337 9,25.5C 8.53566,24.9056 8.36899,24.2389 8.5,23.5C 8.93205,22.2905 9.59872,21.2905 10.5,20.5 Z"/></g>
<g><path style="opacity:1" fill="#7f7f7f" d="M 96.5,20.5 C 97.9744,21.4363 98.9744,22.7697 99.5,24.5C 99.5654,24.9382 99.3988,25.2716 99,25.5C 98,24.5 97,23.5 96,22.5C 95.3083,21.5632 95.475,20.8966 96.5,20.5 Z"/></g>
<g><path style="opacity:1" fill="#ebebeb" d="M 47.5,28.5 C 69.4892,27.3232 79.9892,37.6565 79,59.5C 71.6087,77.632 58.7754,83.132 40.5,76C 27.5049,65.702 25.0049,53.202 33,38.5C 37.2083,34.1025 42.0416,30.7692 47.5,28.5 Z"/></g>
<g><path style="opacity:0.812" fill="#7c7c7c" d="M 101.5,28.5 C 103.008,30.1815 104.008,32.1815 104.5,34.5C 102.822,33.2529 101.489,31.5862 100.5,29.5C 100.624,28.8933 100.957,28.56 101.5,28.5 Z"/></g>
<g><path style="opacity:1" fill="#303030" d="M 48.5,31.5 C 68.3554,31.1861 77.1887,40.8527 75,60.5C 68.088,74.6949 57.2546,78.8616 42.5,73C 31.9673,65.4006 29.134,55.5672 34,43.5C 37.5405,37.78 42.3739,33.78 48.5,31.5 Z"/></g>
<g><path style="opacity:0.251" fill="#8a8a8a" d="M 105.5,37.5 C 106.341,39.3792 106.675,41.3792 106.5,43.5C 104.849,41.5979 104.516,39.5979 105.5,37.5 Z"/></g>
<g><path style="opacity:1" fill="#f5f5f5" d="M 50.5,39.5 C 54.5341,39.5045 58.5341,39.8379 62.5,40.5C 62.5,42.8333 62.5,45.1667 62.5,47.5C 59.5071,46.8654 56.5071,46.6987 53.5,47C 57.1637,47.9171 60.3304,49.7504 63,52.5C 64.3783,56.9425 63.2116,60.4425 59.5,63C 54.8333,63.6667 50.1667,63.6667 45.5,63C 44.3977,60.5991 44.231,58.0991 45,55.5C 47.6397,57.5235 50.473,57.8568 53.5,56.5C 49.9861,55.3381 47.1527,53.3381 45,50.5C 43.1851,44.855 45.0185,41.1883 50.5,39.5 Z"/></g>
<g><path style="opacity:0.686" fill="#919191" d="M -0.5,55.5 C 0.305771,56.9972 0.972438,58.6639 1.5,60.5C 1.04311,61.2975 0.376442,61.6309 -0.5,61.5C -0.5,59.5 -0.5,57.5 -0.5,55.5 Z"/></g>
<g><path style="opacity:1" fill="#adadad" d="M 106.5,64.5 C 106.59,67.1522 105.924,69.4855 104.5,71.5C 104.171,68.7718 104.837,66.4385 106.5,64.5 Z"/></g>
<g><path style="opacity:1" fill="#767676" d="M 0.5,64.5 C 1.77092,66.1086 2.77092,67.9419 3.5,70C 2.90558,70.4643 2.23891,70.631 1.5,70.5C 0.850485,68.5648 0.517151,66.5648 0.5,64.5 Z"/></g>
<g><path style="opacity:1" fill="#949494" d="M 5.5,79.5 C 4.5592,77.9505 3.89254,76.2838 3.5,74.5C 4.80645,74.8543 5.80645,76.1876 6.5,78.5C 6.37642,79.1067 6.04309,79.44 5.5,79.5 Z"/></g>
<g><path style="opacity:0.624" fill="#b6b6b6" d="M 103.5,73.5 C 103.396,75.7028 102.73,77.7028 101.5,79.5C 100.892,77.3159 101.559,75.3159 103.5,73.5 Z"/></g>
<g><path style="opacity:0.251" fill="#909090" d="M 11.5,87.5 C 9.45703,86.4206 8.1237,84.754 7.5,82.5C 7.81001,81.2617 8.31001,81.2617 9,82.5C 10.0945,84.0779 10.9278,85.7446 11.5,87.5 Z"/></g>
<g><path style="opacity:0.063" fill="#dedede" d="M 93.5,90.5 C 93.1667,91.5 92.5,92.1667 91.5,92.5C 91.4614,91.2438 91.9614,90.2438 93,89.5C 93.3988,89.7284 93.5654,90.0618 93.5,90.5 Z"/></g>
<g><path style="opacity:0.063" fill="#e2e2e2" d="M 91.5,92.5 C 91.1667,93.5 90.5,94.1667 89.5,94.5C 89.5,93.1667 90.1667,92.5 91.5,92.5 Z"/></g>
<g><path style="opacity:0.627" fill="#8c8c8c" d="M 12.5,89.5 C 15.0892,90.4194 17.0892,92.086 18.5,94.5C 15.9108,93.5806 13.9108,91.914 12.5,89.5 Z"/></g>
<g><path style="opacity:0.875" fill="#b2b2b2" d="M 19.5,95.5 C 21.0269,95.427 22.0269,96.0937 22.5,97.5C 20.9731,97.573 19.9731,96.9063 19.5,95.5 Z"/></g>
<g><path style="opacity:0.125" fill="#cccccc" d="M 87.5,95.5 C 86.7377,97.2624 85.4044,98.2624 83.5,98.5C 84.2623,96.7376 85.5956,95.7376 87.5,95.5 Z"/></g>
<g><path style="opacity:0.875" fill="#a2a2a2" d="M 22.5,97.5 C 24.0269,97.427 25.0269,98.0937 25.5,99.5C 23.9731,99.573 22.9731,98.9063 22.5,97.5 Z"/></g>
<g><path style="opacity:1" fill="#909090" d="M 28.5,101.5 C 30.698,101.12 32.3646,101.787 33.5,103.5C 31.4471,103.598 29.7804,102.931 28.5,101.5 Z"/></g>
<g><path style="opacity:0.125" fill="#c3c3c3" d="M 79.5,101.5 C 78.609,102.11 77.609,102.443 76.5,102.5C 77.221,100.618 78.221,100.285 79.5,101.5 Z"/></g>
<g><path style="opacity:0.063" fill="#cbcbcb" d="M 70.5,105.5 C 68.5648,106.15 66.5648,106.483 64.5,106.5C 66.4021,104.849 68.4021,104.516 70.5,105.5 Z"/></g>
</svg>
